<?xml version="1.0" encoding="UTF-8"?>
<svg version="1.1" xmlns="http://www.w3.org/2000/svg" width="2588" height="514">
<path d="M0 0 C1.2379834 0.29801514 1.2379834 0.29801514 2.50097656 0.60205078 C34.68583213 8.57362447 63.51419276 24.51419276 87 48 C86.625 50.125 86.625 50.125 86 52 C85.28199219 51.52691406 84.56398438 51.05382813 83.82421875 50.56640625 C50.16437081 29.06266778 11.89194107 20.93667911 -27.42822266 29.265625 C-63.48884238 37.44959543 -96.42737089 59.2704733 -116.39550781 90.63500977 C-124.4108763 103.65929305 -130.96089779 117.19227588 -135 132 C-135.19754883 132.71736328 -135.39509766 133.43472656 -135.59863281 134.17382812 C-141.53585192 156.85381079 -141.53180657 183.4667586 -135 206 C-134.78569336 206.7626416 -134.57138672 207.5252832 -134.35058594 208.31103516 C-131.13597222 219.49199508 -126.67987573 229.8577219 -121 240 C-120.62359375 240.67305176 -120.2471875 241.34610352 -119.859375 242.03955078 C-114.05511248 252.23328683 -107.269457 260.70714991 -99 269 C-98.14792969 269.85851562 -97.29585937 270.71703125 -96.41796875 271.6015625 C-69.77230811 298.03199163 -34.56040699 312.21743211 2.875 312.25 C3.56974426 312.25067474 4.26448853 312.25134949 4.98028564 312.25204468 C15.6265647 312.23561476 25.64433883 311.67242869 36 309 C36.67562988 308.83371094 37.35125977 308.66742188 38.04736328 308.49609375 C54.06477787 304.49821814 68.76635198 298.02503108 82.375 288.6875 C85 287 85 287 87 287 C80.1353137 304.42890414 50.56193767 318.97334368 34.46728516 326.12548828 C15.57967869 334.08357036 -3.1904004 338.29373025 -23.453125 340.9765625 C-28.39343515 341.63144082 -33.31499532 342.35152451 -38.234375 343.1484375 C-55.60719255 345.9523284 -73.00600588 348.09347855 -90.5 350 C-92.24138245 350.18993027 -92.24138245 350.18993027 -94.01794434 350.38369751 C-98.67635693 350.89130357 -103.33484885 351.39817683 -107.9934082 351.9044342 C-202.29050749 362.17389457 -282.58809013 386.2788908 -359.703125 454.9296875 C-361.21382843 456.29137597 -362.74488621 457.63087302 -364.296875 458.9453125 C-368.45071886 462.48324158 -371.98651136 466.0897355 -375.375 470.375 C-390.94185883 489.83357354 -414.01737716 502.92859885 -438 509 C-438.66265869 509.18691406 -439.32531738 509.37382813 -440.00805664 509.56640625 C-448.22611244 511.58887095 -456.62535719 511.30129222 -465.0324707 511.26074219 C-467.6917987 511.24998261 -470.35045762 511.26070299 -473.00976562 511.2734375 C-474.71875147 511.27211647 -476.42773691 511.26955524 -478.13671875 511.265625 C-478.9222966 511.26967346 -479.70787445 511.27372192 -480.51725769 511.27789307 C-485.37526935 511.23694879 -489.38710008 510.53979953 -494 509 C-494 508.67 -494 508.34 -494 508 C-493.38181396 507.96036133 -492.76362793 507.92072266 -492.12670898 507.87988281 C-460.44421877 505.7510547 -434.67959323 496.61229473 -412 474 C-411.29617187 473.319375 -410.59234375 472.63875 -409.8671875 471.9375 C-398.9948105 460.66896351 -391.4381445 445.90437805 -387 431 C-386.79262207 430.33129883 -386.58524414 429.66259766 -386.37158203 428.97363281 C-378.44344833 402.53816408 -382.16638278 373.39870878 -394.97021484 349.16357422 C-409.77628416 322.52741859 -433.15558721 304.7709905 -461.98828125 296.0078125 C-489.07283683 288.85660328 -518.69621105 292.43304304 -543.10888672 306.24780273 C-553.56003625 312.47720596 -562.62489284 320.19293888 -571 329 C-571.66 328.67 -572.32 328.34 -573 328 C-567.04234409 318.87963787 -560.55257264 310.84260999 -553 303 C-552.41863281 302.35546875 -551.83726563 301.7109375 -551.23828125 301.046875 C-534.4924666 282.99345265 -506.51919193 270.36554246 -482.12988281 268.81787109 C-479.0865199 268.72342887 -476.04445519 268.67131691 -473 268.625 C-411.5664475 266.86849151 -356.47880626 240.34507647 -311 200 C-309.58384449 198.77024445 -308.16726131 197.54098098 -306.75 196.3125 C-298.944952 189.43467799 -291.3046084 182.45705207 -283.95703125 175.08984375 C-283.14433273 174.27810196 -282.33163422 173.46636017 -281.49430847 172.63002014 C-279.79323649 170.92962282 -278.09340311 169.22798554 -276.39477539 167.52514648 C-273.81183484 164.93683345 -271.22357659 162.35392439 -268.63476562 159.77148438 C-266.97103335 158.10709146 -265.30761121 156.44238846 -263.64453125 154.77734375 C-262.88082718 154.01566391 -262.11712311 153.25398407 -261.33027649 152.46922302 C-257.22220005 148.34335865 -253.28341454 144.1287537 -249.48240662 139.71821594 C-247.81857957 137.78972067 -246.1022121 135.92018492 -244.3515625 134.0703125 C-243.4395105 133.10315308 -243.4395105 133.10315308 -242.5090332 132.11645508 C-241.88730225 131.4592749 -241.26557129 130.80209473 -240.625 130.125 C-235.75875881 124.95867493 -230.94389695 119.7575085 -226.21484375 114.46484375 C-222.06729733 109.84914394 -217.84715167 105.30077782 -213.62451172 100.75390625 C-212.02650254 99.02861351 -210.43681163 97.29594618 -208.84765625 95.5625 C-200.46784156 86.47342585 -191.79397684 77.68673657 -183.0625 68.9375 C-182.47636932 68.34878113 -181.89023865 67.76006226 -181.28634644 67.15350342 C-175.0328846 60.87826091 -168.75310373 54.74223986 -162 49 C-160.4551874 47.5867645 -158.91304675 46.17059591 -157.375 44.75 C-151.72481436 39.65443381 -145.78063361 34.9803917 -139.75048828 30.34765625 C-138.05483472 29.04221585 -136.36887639 27.72503534 -134.68359375 26.40625 C-133.13865234 25.21515625 -133.13865234 25.21515625 -131.5625 24 C-130.65628906 23.29875 -129.75007813 22.5975 -128.81640625 21.875 C-125.65744845 19.77194904 -122.50929371 18.44151558 -119 17 C-117.60414215 16.32715591 -116.2137464 15.64289853 -114.828125 14.94921875 C-80.32338038 -2.18617553 -37.889434 -9.30925829 0 0 Z " fill="#F77F00" transform="translate(2501,3)"/>
<path d="M0 0 C25.41 0 50.82 0 77 0 C72.40488466 20.67801902 72.40488466 20.67801902 70.19091797 29.27978516 C69.93995361 30.26442749 69.68898926 31.24906982 69.43041992 32.2635498 C68.62029281 35.43939583 67.80628732 38.61423277 66.9921875 41.7890625 C66.41951971 44.03097264 65.84710635 46.27294779 65.27493286 48.51498413 C63.7821725 54.36161029 62.28612714 60.20739069 60.78930664 66.05297852 C59.26517113 72.00748497 57.74398739 77.9627453 56.22265625 83.91796875 C54.5121221 90.61350258 52.80132568 97.3089679 51.08810425 104.0038147 C50.82808624 105.02010956 50.56806824 106.03640442 50.3001709 107.08349609 C49.81843171 108.9662235 49.33652273 110.84890748 48.85440063 112.73153687 C47.55329158 117.81704994 46.26836854 122.90621905 45 128 C58.84021434 120.33408482 72.66679851 112.64717928 86.43188477 104.84692383 C93.44223298 100.87570541 100.46774182 96.93227752 107.5 93 C115.51125453 88.51970497 123.51189025 84.02142857 131.5 79.5 C134.32325011 77.90418548 137.14670411 76.30873225 139.97021484 74.71337891 C142.70068581 73.16926567 145.42962779 71.62247735 148.15835571 70.07528687 C151.0410865 68.44251093 153.92707775 66.81551347 156.8125 65.1875 C157.89917969 64.57003906 158.98585938 63.95257813 160.10546875 63.31640625 C161.10835937 62.75179687 162.11125 62.1871875 163.14453125 61.60546875 C164.03503174 61.10168701 164.92553223 60.59790527 165.84301758 60.07885742 C168 59 168 59 170 59 C167.63435208 74.33179412 158.02763241 92.32090915 146 102 C143.75781961 103.44912623 141.51726905 104.85712645 139.23046875 106.23046875 C138.32959534 106.77785706 138.32959534 106.77785706 137.41052246 107.33630371 C135.94244393 108.22766317 134.47151063 109.11431794 133 110 C133.25705719 110.76895096 133.51411438 111.53790192 133.77896118 112.33015442 C137.06350905 122.15675708 140.34536895 131.9842553 143.625 141.8125 C144.01877712 142.99254734 144.01877712 142.99254734 144.42050934 144.19643402 C151.53293244 165.51323613 158.60696279 186.84087537 165.52441406 208.22192383 C166.04743883 209.83808161 166.57054835 211.45421197 167.09375 213.0703125 C167.34026306 213.83178085 167.58677612 214.59324921 167.84075928 215.37779236 C169.47894131 220.42599839 171.14975652 225.46244968 172.84375 230.4921875 C173.06338409 231.14518829 173.28301819 231.79818909 173.50930786 232.47097778 C174.50460711 235.42713974 175.50543266 238.38124322 176.51513672 241.33251953 C176.84787598 242.31591309 177.18061523 243.29930664 177.5234375 244.3125 C177.81138184 245.15425781 178.09932617 245.99601563 178.39599609 246.86328125 C179 249 179 249 179 252 C156.23 252 133.46 252 110 252 C105.18566689 237.55700068 100.41651533 223.14594976 95.96875 208.59375 C95.4423487 206.87919547 94.91569073 205.16471972 94.38879395 203.45031738 C93.03173226 199.03238869 91.67805403 194.61343111 90.32519531 190.19421387 C88.93247078 185.64705068 87.53638676 181.10091913 86.140625 176.5546875 C83.42388233 167.7041047 80.71072982 158.8524261 78 150 C74.79762128 151.25278975 71.92029845 152.54177048 69.0234375 154.3984375 C68.27900391 154.8723291 67.53457031 155.3462207 66.76757812 155.83447266 C65.97802734 156.34284668 65.18847656 156.8512207 64.375 157.375 C62.68498344 158.45326233 60.99487648 159.53138297 59.3046875 160.609375 C58.43553711 161.16560547 57.56638672 161.72183594 56.67089844 162.29492188 C52.29231248 165.09017273 47.89521728 167.85600462 43.5 170.625 C41.92678165 171.61670907 40.35384254 172.60886135 38.78125 173.6015625 C38.12189453 174.01744629 37.46253906 174.43333008 36.78320312 174.86181641 C32.12917784 177.8323895 31.21537565 179.78052797 30.02294922 185.00415039 C29.84855316 185.72460037 29.6741571 186.44505035 29.49447632 187.18733215 C28.92013179 189.57160349 28.36254292 191.95947821 27.8046875 194.34765625 C27.40894375 196.00177297 27.01204739 197.65561432 26.61404419 199.30918884 C25.56851162 203.66461022 24.53664616 208.02315097 23.50817871 212.38262939 C21.85831282 219.36553491 20.18757548 226.34347649 18.5173378 233.3215313 C17.93443317 235.76526083 17.35714028 238.21026403 16.7807312 240.65553284 C16.42667523 242.1454605 16.072524 243.63536552 15.71826172 245.12524414 C15.55825684 245.81046143 15.39825195 246.49567871 15.23339844 247.20166016 C14.11336049 251.88663951 14.11336049 251.88663951 13 253 C11.00198986 253.06969942 9.0014443 253.06742982 7.00244141 253.03759766 C5.71665192 253.02072906 4.43086243 253.00386047 3.10610962 252.98648071 C1.68792337 252.96257028 0.26974106 252.93842478 -1.1484375 252.9140625 C-2.60038785 252.89228538 -4.05234315 252.87083618 -5.50430298 252.84970093 C-8.5594074 252.80408951 -11.61442732 252.75488528 -14.66943359 252.703125 C-18.55700268 252.63748181 -22.44463794 252.57993634 -26.33237267 252.52509499 C-29.33872608 252.4818693 -32.34500446 252.43453493 -35.3512764 252.38599777 C-36.78236721 252.36331069 -38.2134769 252.34177998 -39.64460373 252.32149124 C-47.80858125 252.20297842 -55.88211199 251.89974068 -64 251 C-55.12248148 215.35988589 -46.18846929 179.73414183 -37.1875 144.125 C-36.95674522 143.21207939 -36.72599045 142.29915878 -36.4882431 141.35857391 C-28.7848117 110.88693031 -21.00799649 80.43449683 -13.16479492 49.99853516 C-12.61122989 47.84967308 -12.05773257 45.70079358 -11.5043087 43.55189514 C-11.15061996 42.17874336 -10.79680293 40.80562462 -10.44285011 39.43254089 C-7.83431678 29.31040467 -5.27472076 19.17675194 -2.78796387 9.02394104 C-2.45302917 7.66715492 -2.45302917 7.66715492 -2.11132812 6.28295898 C-1.9192981 5.49839828 -1.72726807 4.71383759 -1.52941895 3.90550232 C-1 2 -1 2 0 0 Z " fill="#000000" transform="translate(1679,133)"/>
<path d="M0 0 C36.65455186 -0.05004991 73.3081331 0.02239209 109.96207237 0.23571968 C117.80421135 0.28110602 125.64629524 0.32062469 133.48852539 0.34643555 C140.4911423 0.36948559 147.49362001 0.40286135 154.49612623 0.44870156 C158.15499391 0.47234038 161.81372764 0.49126454 165.4726696 0.49761391 C169.5118488 0.50483627 173.55054309 0.53531859 177.58959961 0.56762695 C178.76091934 0.56619186 179.93223907 0.56475677 181.13905334 0.5632782 C192.6954588 0.69354633 204.0778405 2.08367894 213 10 C218.49439223 15.62938958 219.96091869 21.71082633 220.03125 29.4296875 C219.73907343 36.69027522 218.81086913 43.7201378 217.36401367 50.8371582 C217.19155971 51.69012891 217.01910574 52.54309961 216.8414259 53.42191792 C214.34834334 65.46174873 211.29618251 77.37062739 208.30078125 89.29296875 C207.65839719 91.86266028 207.01631603 94.43242591 206.3745575 97.00227356 C205.04067501 102.34047876 203.70305111 107.67773517 202.36303711 113.0144043 C200.81403256 119.18357479 199.27101637 125.35422031 197.73107082 131.52565783 C196.24145981 137.49485498 194.74785465 143.46304432 193.25240135 149.43078041 C192.61866022 151.96122168 191.98590783 154.49191078 191.35415077 157.02284813 C190.4769399 160.53458261 189.5952042 164.04514889 188.7121582 167.55541992 C188.45086624 168.60508942 188.18957428 169.65475891 187.92036438 170.73623657 C187.68075989 171.68474991 187.4411554 172.63326324 187.19429016 173.61051941 C186.8826818 174.853308 186.8826818 174.853308 186.56477833 176.12120342 C186 178 186 178 185 179 C182.62699131 179.09494733 180.28321297 179.12559319 177.90991211 179.11352539 C177.16849472 179.11367142 176.42707733 179.11381744 175.66319275 179.1139679 C173.20121379 179.11326865 170.73930957 179.10547574 168.27734375 179.09765625 C166.57483461 179.09579211 164.87232493 179.09436819 163.16981506 179.09336853 C158.68006927 179.08954302 154.19035562 179.07971247 149.70062256 179.06866455 C145.12268509 179.05845113 140.54474244 179.05387106 135.96679688 179.04882812 C126.97785043 179.03809022 117.98892788 179.02101341 109 179 C109.18712555 178.22866226 109.3742511 177.45732452 109.56704712 176.66261292 C111.3608515 169.2682522 113.15435525 161.87381866 114.94754982 154.47931004 C115.86868534 150.68091156 116.78992333 146.882538 117.71142578 143.08422852 C122.1646073 124.72845272 126.6046196 106.36972406 131 88 C121.52434268 87.93023842 112.04877489 87.87705666 102.57291603 87.84456348 C98.17205302 87.82896196 93.77136678 87.80782548 89.37060547 87.77368164 C85.11713315 87.74089015 80.86382999 87.7231056 76.61024094 87.71536827 C74.99406652 87.70986005 73.37790051 87.69910458 71.76179886 87.68280983 C55.22935619 87.45369664 55.22935619 87.45369664 41 95 C36.52736839 102.17493944 34.33387285 110.0044372 32.25 118.125 C31.94707031 119.25292969 31.64414062 120.38085938 31.33203125 121.54296875 C27.84474582 133.42031555 27.84474582 133.42031555 29.796875 145.2421875 C33.05340697 150.00010758 39.25777723 151.24795592 44.5662384 152.55575562 C49.31893462 153.42328455 54.11884157 153.36224945 58.9375 153.4140625 C60.05817871 153.43342865 61.17885742 153.4527948 62.33349609 153.4727478 C65.88892163 153.53220132 69.44438013 153.57879186 73 153.625 C75.4205865 153.66321127 77.84115987 153.7022648 80.26171875 153.7421875 C86.17436194 153.83787455 92.08708523 153.92302091 98 154 C96.88773329 155.92972254 95.7725982 157.85779198 94.65625 159.78515625 C94.03556641 160.85902588 93.41488281 161.93289551 92.77539062 163.03930664 C88.88203141 169.5319864 84.10826725 175.68085423 76.48632812 177.64912415 C66.1566103 179.31685427 55.93885508 179.2727204 45.5 179.23046875 C43.53190135 179.22927336 41.56380212 179.22882455 39.59570312 179.2290802 C35.49084854 179.22752503 31.38608235 179.21931071 27.28125 179.20581055 C22.05340199 179.18882248 16.82565071 179.18499693 11.59777832 179.18575573 C7.53970437 179.18548213 3.48165102 179.17997064 -0.57641602 179.17275429 C-2.50268397 179.16960123 -4.42895422 179.1676082 -6.35522461 179.16686058 C-41.28330025 179.1384505 -41.28330025 179.1384505 -47.625 173.57421875 C-53.98000911 166.29845548 -52.58553491 156.0883742 -52 147 C-49.29065576 122.59616161 -42.0168628 91.93590522 -23.01953125 75.26171875 C-11.37969259 66.46086513 3.51686515 66.40733406 17.43359375 66.42578125 C19.19964435 66.41326593 20.96568274 66.39891315 22.73170471 66.38285828 C27.36704052 66.3450957 32.00216517 66.32971826 36.63763428 66.32006836 C41.21096983 66.30770611 45.78417284 66.27798782 50.35742188 66.24804688 C51.25634974 66.24233107 52.1552776 66.23661526 53.08144569 66.23072624 C61.22956528 66.1780172 69.37759671 66.11638469 77.52557373 66.04498291 C81.23377551 66.01282496 84.94191313 65.98907166 88.65020752 65.97064209 C93.2590747 65.94569667 97.86703517 65.89469927 102.47545052 65.82604027 C104.1983999 65.80431026 105.92147871 65.79093343 107.64455986 65.78667641 C117.87272196 65.75542366 126.85363688 65.46293183 134.8888092 58.32121277 C139.65789952 53.48276754 141.93282916 47.49288347 142.0625 40.75 C140.61850828 37.01260967 138.36505012 35.00084061 135 33 C126.94385686 30.01624328 118.5844259 29.85309948 110.09912109 29.8581543 C108.66342018 29.85294266 108.66342018 29.85294266 107.19871521 29.84762573 C105.13353421 29.84030984 103.06834556 29.83494243 101.00315475 29.83133507 C97.73272169 29.82412904 94.46243514 29.80843455 91.19204712 29.78999329 C81.89823323 29.73769722 72.604505 29.68950886 63.31054688 29.67407227 C57.61478035 29.66399427 51.91939134 29.6346849 46.22377396 29.59275246 C44.05729653 29.58044634 41.89076584 29.57532048 39.72425461 29.57755089 C36.69645507 29.5799026 33.66974247 29.55775034 30.64208984 29.5300293 C29.30471519 29.53993141 29.30471519 29.53993141 27.94032288 29.55003357 C22.4546865 29.46760137 19.39204251 28.58731225 15 25 C14.39414063 24.55140625 13.78828125 24.1028125 13.1640625 23.640625 C6.76630465 17.85990979 3.3933341 9.7826338 0 2 C0 1.34 0 0.68 0 0 Z " fill="#000000" transform="translate(231,203)"/>
<path d="M0 0 C22.8284184 0.0842344 45.65676781 0.17948784 68.48508644 0.28752708 C79.0868857 0.33745073 89.68867801 0.38389427 100.29052734 0.421875 C109.541121 0.45502403 118.7916572 0.49497784 128.04218709 0.54279006 C132.93114318 0.56782973 137.82006229 0.58967472 142.70906448 0.60334396 C199.92423337 0.76988127 199.92423337 0.76988127 214 8.6875 C221.02176111 16.80641128 219.68340273 29.02531133 219 39 C218.58148306 42.66173569 218.01036497 46.28674095 217.39355469 49.91992188 C217.21919765 50.95169807 217.04484062 51.98347427 216.86520004 53.04651642 C214.62752706 65.75435539 211.4447829 78.22038919 208.265625 90.71875 C207.62032224 93.2849921 206.97577703 95.85141298 206.33221436 98.41809082 C204.82770055 104.41161105 203.31363837 110.40267275 201.79582858 116.392838 C200.06379269 123.23051421 198.34287822 130.07097479 196.62273455 136.91165066 C193.0938912 150.94415376 189.55160732 164.97324131 186 179 C166.76345476 179.05350201 147.54299522 179.05299504 128.3125 178.5 C126.49675613 178.4513975 124.68100078 178.40322216 122.86523438 178.35546875 C118.57667672 178.241811 114.28830805 178.12270024 110 178 C111.61856977 168.02599562 114.00065577 158.24555897 116.3515625 148.42578125 C116.77494344 146.64794374 117.19806536 144.87004452 117.62094116 143.09208679 C118.72638753 138.44735053 119.83531569 133.80345257 120.94500732 129.159729 C122.08005354 124.40712412 123.21175475 119.65372294 124.34375 114.90039062 C126.55925397 105.59948453 128.77844246 96.29946189 131 87 C122.74958627 86.95334954 114.49922905 86.91796657 106.2487154 86.89637566 C102.41633202 86.88600525 98.58403988 86.8719718 94.75170898 86.84912109 C91.04287527 86.82714896 87.33412846 86.8153809 83.6252346 86.81024551 C82.22088442 86.80659293 80.81653818 86.79946267 79.41222572 86.78853989 C60.49677347 86.58113177 60.49677347 86.58113177 43 93 C38.91340595 97.18403891 37.10522573 100.62363766 35.4375 106.3125 C35.23552002 106.99965088 35.03354004 107.68680176 34.82543945 108.39477539 C34.19277457 110.5906115 33.59107262 112.79262295 33 115 C32.79955078 115.74411133 32.59910156 116.48822266 32.39257812 117.25488281 C28.78649618 130.8873176 28.78649618 130.8873176 29.875 144.8125 C33.73031895 150.59547842 40.00903957 151.6129333 46.51489258 153.03930664 C51.99157165 154.11837291 57.2534399 154.25692287 62.8203125 154.1953125 C63.80498505 154.1924826 64.78965759 154.18965271 65.8041687 154.18673706 C68.91124261 154.17565195 72.01801504 154.15056991 75.125 154.125 C77.24739163 154.11495509 79.36978784 154.1058319 81.4921875 154.09765625 C86.66157231 154.07575099 91.83073526 154.04130328 97 154 C93.55378117 162.97894943 87.13786173 171.69337153 79 177 C74.83660929 178.61856223 71.37939011 179.24906815 66.92333984 179.24291992 C65.14451668 179.24745934 65.14451668 179.24745934 63.32975769 179.25209045 C62.05304703 179.24495529 60.77633636 179.23782013 59.4609375 179.23046875 C58.1091972 179.2296961 56.75745626 179.2297076 55.40571594 179.23045349 C51.80453161 179.22951299 48.20351914 179.21538079 44.60238266 179.19763947 C42.37510929 179.1875005 40.147852 179.18077605 37.92056274 179.17523193 C20.84178137 179.13201087 3.76161073 179.05246206 -13.3125 178.625 C-14.00764709 178.60980316 -14.70279419 178.59460632 -15.41900635 178.57894897 C-41.08420277 177.98306542 -41.08420277 177.98306542 -49 172 C-52.3014331 167.05535361 -52.50953602 162.68462345 -52.4375 156.9375 C-52.42396484 155.62410645 -52.42396484 155.62410645 -52.41015625 154.28417969 C-51.79612329 130.34542236 -44.28514081 96.36913361 -27.03125 78.60546875 C-9.98979927 65.13616827 13.58614289 65.69672604 34.12682724 65.88023567 C37.6254358 65.91077379 41.12387377 65.9273122 44.62258911 65.94029236 C54.55841915 65.97975532 64.49403981 66.04528075 74.4296875 66.11645508 C80.53534474 66.15924178 86.64093422 66.18728613 92.74670792 66.20675468 C95.06148789 66.21728504 97.37624931 66.23364036 99.69094467 66.25605965 C102.92540137 66.28737129 106.15945764 66.30004683 109.39404297 66.30883789 C110.81095177 66.32972977 110.81095177 66.32972977 112.25648499 66.3510437 C121.01390324 66.33891836 129.61414346 64.36997133 136 58 C140.25286006 52.43602505 142.80640143 46.08392642 142 39 C138.81790213 34.17552903 134.40563897 32.41591885 129 31 C122.36741401 30.00450954 115.74865264 29.87321044 109.05566406 29.94995117 C108.11774521 29.95623032 107.17982635 29.96250946 106.21348572 29.96897888 C104.19633723 29.98272858 102.17920249 29.99863951 100.16208649 30.01653099 C96.96717008 30.04337589 93.7723249 30.06111397 90.57733154 30.07600403 C81.5001557 30.11856603 72.4231226 30.16665858 63.34619141 30.24682617 C57.7779696 30.29534702 52.20993851 30.32433879 46.6415329 30.34057045 C44.52521872 30.35045924 42.40892539 30.36765602 40.29273224 30.39235497 C37.33716965 30.42611169 34.38248931 30.43498688 31.42675781 30.43823242 C30.12214851 30.46216064 30.12214851 30.46216064 28.79118347 30.48657227 C22.13026401 30.45323765 18.65554971 28.39943071 13.69140625 23.9140625 C8.37426662 18.19691787 0 8.31993378 0 0 Z " fill="#000000" transform="translate(1169,206)"/>
<path d="M0 0 C1.75573716 0.00084825 3.51147537 0.00036727 5.26721191 -0.00132751 C9.98946829 -0.00218117 14.71149169 0.01534147 19.43369436 0.03639436 C24.3850747 0.05526725 29.33646156 0.0569199 34.28787231 0.06047058 C43.64435562 0.06976008 53.00073259 0.09433157 62.35716927 0.12451905 C73.01749373 0.15815992 83.67782352 0.17457333 94.33818793 0.18960536 C116.24911802 0.22088418 138.15995267 0.27358388 160.07080078 0.34057617 C158.66925924 4.71270209 157.03553747 8.44391474 154.69580078 12.40307617 C154.11056641 13.40467773 153.52533203 14.4062793 152.92236328 15.43823242 C147.85519605 23.3810705 147.85519605 23.3810705 143.25830078 25.59057617 C142.63310547 25.90510742 142.00791016 26.21963867 141.36376953 26.54370117 C134.86392212 28.80259193 127.98994753 28.46802448 121.20117188 28.42236328 C119.59236145 28.41776344 119.59236145 28.41776344 117.9510498 28.41307068 C115.62939069 28.40593586 113.30773761 28.39655651 110.98609543 28.3851757 C107.30221912 28.36772083 103.61838661 28.35746479 99.93447876 28.34925842 C89.46246192 28.32486814 78.99050392 28.28938497 68.51855469 28.24462891 C62.10438043 28.21771955 55.69024035 28.20075842 49.27602005 28.18976021 C46.8417599 28.18358475 44.4075061 28.17362306 41.97327805 28.15968132 C19.95813672 26.88885958 19.95813672 26.88885958 0.07080078 34.34057617 C-2.61902575 38.43379045 -2.79935514 43.59944625 -1.92919922 48.34057617 C0.00109716 52.6858689 2.75577396 54.77942984 7.08251953 56.62573242 C16.39832554 59.64444308 25.31285179 60.4869594 35.02832031 60.49829102 C35.99211105 60.50337173 36.95590179 60.50845245 37.94889832 60.51368713 C40.03042842 60.52433914 42.11196961 60.53297931 44.19351578 60.53980637 C47.49974616 60.55167934 50.8058508 60.57115431 54.11203003 60.59292603 C63.5087255 60.65425281 72.90540671 60.70846466 82.30224609 60.74194336 C88.06283447 60.76301221 93.82319031 60.7984109 99.58364487 60.84270096 C101.76583985 60.85676262 103.94807593 60.8655609 106.13031387 60.86875534 C136.16146288 60.91736322 136.16146288 60.91736322 144.32080078 67.21557617 C148.9590288 72.00568571 149.25755225 76.19698937 149.21166992 82.63793945 C148.99543232 86.78655334 148.10532955 90.64066277 147.07080078 94.65307617 C146.85294922 95.52826904 146.63509766 96.40346191 146.41064453 97.30517578 C145.64920701 100.32205988 144.86274376 103.3315578 144.07080078 106.34057617 C143.76013672 107.52973633 143.44947266 108.71889648 143.12939453 109.9440918 C142.12372574 113.7676051 141.10083237 117.58605809 140.07080078 121.40307617 C139.75111328 122.60295166 139.43142578 123.80282715 139.10205078 125.0390625 C133.77654083 144.4124839 125.53167741 160.16965136 107.91845703 170.80541992 C94.92080325 177.81238554 81.01783101 178.64685131 66.5065918 178.58349609 C65.09883537 178.5845723 63.69107938 178.58651598 62.2833252 178.58924866 C58.50017294 178.59404663 54.71714085 178.58650449 50.93400311 178.57629561 C46.94875584 178.56742631 42.96351136 178.56927429 38.97825623 178.56965637 C32.28829981 178.56872338 25.59838908 178.56009014 18.90844727 178.54638672 C11.20869821 178.53067164 3.5089991 178.52538866 -4.19076484 178.52612227 C-12.43708736 178.52680146 -20.683391 178.51983951 -28.92970777 178.51067567 C-31.28411193 178.50855947 -33.63851299 178.50783656 -35.99291801 178.50743675 C-39.71372888 178.50642082 -43.43449899 178.50022409 -47.15529633 178.49027061 C-49.14680564 178.48602896 -51.13832333 178.48651083 -53.12983704 178.48721313 C-84.71751147 178.37683234 -84.71751147 178.37683234 -93.32763672 170.21557617 C-97.66553954 165.1370558 -100.73222997 159.91296332 -101.92919922 153.34057617 C-101.13166953 153.33726603 -100.33413984 153.33395588 -99.51244259 153.33054543 C-80.09898624 153.2492943 -60.68560903 153.15719486 -41.27226162 153.05304909 C-31.88407963 153.00294589 -22.49590627 152.95650268 -13.10766602 152.91870117 C-4.92404994 152.88574073 3.25949871 152.8458871 11.44304031 152.79778612 C15.77539931 152.77256143 20.10771382 152.75076825 24.44012642 152.73723221 C28.52030401 152.72437526 32.60032868 152.7022818 36.68042183 152.67319298 C38.17553043 152.66414557 39.67066364 152.65843361 41.16579819 152.65636253 C43.21292288 152.65301982 45.25961924 152.63748917 47.30665588 152.61904907 C48.45060098 152.61351831 49.59454607 152.60798756 50.77315617 152.6022892 C54.44289308 152.31104558 57.59771098 151.55202525 61.07080078 150.34057617 C65.04819436 145.24672124 65.72500134 138.23234379 65.44970703 131.95385742 C64.74674282 127.10557847 63.29484347 123.07937319 59.35205078 119.99682617 C47.18675855 112.78012739 29.38448254 115.22501439 15.69020271 115.3265419 C12.53178353 115.34891407 9.37342721 115.36276202 6.21495056 115.37423706 C-2.75221193 115.4075212 -11.71926842 115.44965183 -20.6862793 115.51196289 C-26.20307209 115.54969861 -31.71976305 115.57265324 -37.23666573 115.58626938 C-39.32536245 115.59428664 -41.41404598 115.60784261 -43.50266838 115.62720108 C-46.42093333 115.65381423 -49.33870842 115.66158434 -52.25708008 115.6652832 C-53.10660751 115.67764008 -53.95613495 115.68999695 -54.83140564 115.70272827 C-61.79695505 115.67956087 -67.87308497 114.26725689 -73.80419922 110.52807617 C-78.85236398 105.33143598 -79.44512285 100.12958586 -79.3890686 93.13710022 C-79.12955722 84.8099403 -77.10364671 76.88844285 -74.98632812 68.86767578 C-74.30535914 66.28247964 -73.65621407 63.69081721 -73.01123047 61.09643555 C-68.01751002 41.39573578 -61.44866067 19.94781361 -43.22998047 8.64916992 C-29.49939837 0.83975565 -15.41941539 -0.10562847 0 0 Z " fill="#000000" transform="translate(551.92919921875,204.659423828125)"/>
<path d="M0 0 C1.26417755 0.00612305 2.5283551 0.01224609 3.83084106 0.01855469 C7.61051357 0.03830045 11.39000405 0.07049577 15.16956711 0.10505295 C18.02157141 0.13067956 20.87358871 0.15392416 23.72561646 0.17678833 C38.66998053 0.2976567 53.61407378 0.44213036 68.5581665 0.59246826 C74.69371502 0.65387003 80.82928007 0.71357319 86.96484375 0.7734375 C98.91798511 0.89030477 110.87110757 1.00899439 122.82421875 1.12890625 C121.32282516 9.21153374 116.88409416 16.53398292 110.82421875 22.12890625 C107.2285052 24.44649675 104.10485284 24.38567802 99.88769531 24.40014648 C98.85270905 24.4079866 98.85270905 24.4079866 97.79681396 24.41598511 C96.30180377 24.42620742 94.80675816 24.43200243 93.31171417 24.4338665 C90.9398806 24.43753865 88.56846202 24.45428997 86.19671631 24.47462463 C79.4544652 24.52994293 72.7121524 24.56064722 65.96972656 24.58520508 C61.84119831 24.6011466 57.71296295 24.63143769 53.5845871 24.66996956 C52.01705808 24.68156553 50.44947651 24.68754943 48.8819046 24.68765068 C35.5473327 24.4458951 35.5473327 24.4458951 24.07421875 30.50390625 C20.98999456 34.76258667 19.82126087 39.76050596 18.46337891 44.77441406 C17.36666849 48.81439699 16.22900581 52.84297188 15.09912109 56.8737793 C14.4612922 59.15536864 13.82745306 61.43807738 13.19775391 63.72192383 C12.90562012 64.77790771 12.61348633 65.8338916 12.3125 66.921875 C12.04993408 67.87602295 11.78736816 68.8301709 11.5168457 69.81323242 C10.82421875 72.12890625 10.82421875 72.12890625 9.82421875 74.12890625 C10.76524948 74.12668564 11.70628021 74.12446503 12.67582703 74.12217712 C21.54810242 74.1018974 30.42037311 74.0869108 39.29266644 74.07709408 C43.85389358 74.07187754 48.41510199 74.06480218 52.97631836 74.0534668 C57.37888078 74.04259428 61.7814252 74.03662014 66.18400002 74.03402901 C67.86289567 74.03218264 69.54179035 74.02857716 71.22067833 74.02317619 C73.57381691 74.01590786 75.92688128 74.01491776 78.2800293 74.01538086 C78.97270905 74.01178558 79.66538879 74.00819031 80.37905884 74.00448608 C83.98821332 74.01216209 87.31396319 74.27594523 90.82421875 75.12890625 C79.87544754 99.17443649 79.87544754 99.17443649 69.82421875 103.12890625 C66.76165771 103.36941528 66.76165771 103.36941528 63.12792969 103.35595703 C62.13218933 103.35639511 62.13218933 103.35639511 61.11633301 103.35684204 C58.93028524 103.35545283 56.74458171 103.33991128 54.55859375 103.32421875 C53.03973578 103.32048716 51.5208754 103.31764088 50.00201416 103.31564331 C46.01038938 103.30801835 42.01891086 103.28837969 38.02734375 103.26623535 C33.95184304 103.24575239 29.87631863 103.23663636 25.80078125 103.2265625 C17.80852674 103.20513266 9.81639096 103.17101051 1.82421875 103.12890625 C1.71482971 104.37818909 1.60544067 105.62747192 1.49273682 106.91461182 C0.85701472 112.59205813 -0.47542398 118.02586444 -1.87207031 123.55761719 C-2.14703842 124.66636703 -2.42200653 125.77511688 -2.70530701 126.91746521 C-3.6118998 130.56744876 -4.52665095 134.21533565 -5.44140625 137.86328125 C-6.07872385 140.42314497 -6.71549458 142.9831449 -7.35174561 145.54327393 C-8.85698764 151.59648273 -10.36795865 157.64824529 -11.88118625 163.69946218 C-14.08393584 172.50900773 -16.27836118 181.32062693 -18.47246933 190.13232803 C-18.80063454 191.45021864 -19.12880149 192.76810881 -19.45697021 194.08599854 C-19.61770767 194.73155331 -19.77844512 195.37710808 -19.94405341 196.04222512 C-21.03167246 200.40937164 -22.1220645 204.77581971 -23.21343994 209.14202881 C-23.79648103 211.47711883 -24.3793113 213.81226151 -24.96191406 216.14746094 C-25.23833866 217.25530819 -25.51476326 218.36315544 -25.79956436 219.50457382 C-27.81598975 227.6143027 -29.76887182 235.73798237 -31.65642166 243.87870407 C-33.06984777 249.91703929 -33.06984777 249.91703929 -34.17578125 252.12890625 C-59.58578125 252.12890625 -84.99578125 252.12890625 -111.17578125 252.12890625 C-106.57896968 232.59245706 -106.57896968 232.59245706 -104.984375 226.23388672 C-104.79802899 225.48677303 -104.61168299 224.73965935 -104.41969013 223.96990585 C-103.81869665 221.56168134 -103.21604518 219.15387568 -102.61328125 216.74609375 C-102.1802798 215.01306984 -101.74735429 213.28002695 -101.3144989 211.54696655 C-100.17125466 206.97132505 -99.02635593 202.39609922 -97.88094711 197.82099915 C-97.17293357 194.99252997 -96.46538555 192.16394471 -95.75796509 189.33532715 C-88.64865723 160.91140114 -81.48734663 132.50159019 -74.17578125 104.12890625 C-75.06273682 104.07484619 -75.94969238 104.02078613 -76.86352539 103.96508789 C-78.03004639 103.88637451 -79.19656738 103.80766113 -80.3984375 103.7265625 C-81.55351807 103.65187744 -82.70859863 103.57719238 -83.89868164 103.50024414 C-90.11487242 102.7958691 -94.26220852 100.62760882 -98.17578125 95.75390625 C-100.81815347 91.89253912 -103.19031386 87.85475869 -105.55078125 83.81640625 C-105.90914062 83.20555176 -106.2675 82.59469727 -106.63671875 81.96533203 C-108.24283158 79.13502871 -109.17578125 77.43824948 -109.17578125 74.12890625 C-94.98578125 74.12890625 -80.79578125 74.12890625 -66.17578125 74.12890625 C-65.51578125 70.49890625 -64.85578125 66.86890625 -64.17578125 63.12890625 C-58.65742176 42.17127496 -51.11092251 17.2627457 -31.32421875 5.671875 C-21.03963893 0.63166529 -11.28447386 -0.11034316 0 0 Z " fill="#000000" transform="translate(117.17578125,128.87109375)"/>
<path d="M0 0 C25.08 0 50.16 0 76 0 C75.30301237 5.57590101 74.46340619 10.5851182 72.96875 15.9296875 C72.67478333 17.00429733 72.67478333 17.00429733 72.37487793 18.10061646 C71.96394183 19.59871702 71.55037986 21.09609963 71.13427734 22.59277344 C70.49628513 24.88836665 69.86663229 27.18612608 69.23828125 29.484375 C68.83641667 30.94544438 68.43408963 32.40638666 68.03125 33.8671875 C67.84268433 34.55360321 67.65411865 35.24001892 67.45983887 35.94723511 C66.11684346 40.76631308 66.11684346 40.76631308 65 43 C91.07 43 117.14 43 144 43 C141.75876637 53.08555132 138.63387413 61.97580419 129.9375 68.1875 C121.85565189 72.45069424 112.14489769 72.29355202 103.234375 72.23046875 C102.15673889 72.23001053 101.07910278 72.22955231 99.96881104 72.2290802 C97.7099903 72.22608108 95.4511712 72.21826591 93.19238281 72.20581055 C89.74536786 72.18747536 86.29862132 72.18530185 82.8515625 72.18554688 C80.64583102 72.18063329 78.44010135 72.17480566 76.234375 72.16796875 C74.69979645 72.16629951 74.69979645 72.16629951 73.13421631 72.16459656 C67.98466702 72.13055177 63.07498679 71.88790127 58 71 C57.9070163 71.58763626 57.81403259 72.17527252 57.7182312 72.78071594 C56.17209601 81.91379627 53.86399073 90.82643154 51.5703125 99.79296875 C51.13401544 101.51003197 50.69805802 103.22718152 50.26242065 104.94441223 C49.11973313 109.44513916 47.97266942 113.94473898 46.82458496 118.4440918 C45.66831816 122.97836857 44.51586987 127.51361524 43.36328125 132.04882812 C41.86018407 137.9629008 40.3557182 143.87661835 38.84827995 149.78958607 C38.08352115 152.79249171 37.32184152 155.79617548 36.56003571 158.79983139 C35.99087634 161.03584341 35.41604786 163.2703492 34.84075928 165.50479126 C34.4755686 166.93585717 34.11051144 168.36695717 33.74560547 169.7980957 C33.4239743 171.05056595 33.10234314 172.30303619 32.77096558 173.59346008 C31.75290833 178.09178367 30.84767824 182.46217478 32 187 C36.98971546 193.01324684 44.52476777 194.70187642 52 196 C54.05386554 196.11139927 56.1105679 196.17551548 58.16723633 196.20532227 C59.38812454 196.22526749 60.60901276 196.24521271 61.86689758 196.26576233 C63.17539169 196.28247482 64.4838858 196.29918732 65.83203125 196.31640625 C67.19252628 196.3369958 68.55301519 196.35799278 69.91349792 196.37937927 C73.48248323 196.43439347 77.05152427 196.48389317 80.62060547 196.53222656 C84.26730266 196.58259306 87.91391959 196.6381998 91.56054688 196.69335938 C98.70696151 196.80068804 105.85344825 196.90218843 113 197 C112.07954524 198.89712483 111.1524501 200.79102857 110.22265625 202.68359375 C109.70711182 203.73861084 109.19156738 204.79362793 108.66040039 205.88061523 C105.36655441 212.06874494 101.52891045 218.0438275 95 221 C91.13258015 221.45292503 87.28191024 221.40952141 83.3918457 221.38818359 C82.21724289 221.39344055 81.04264008 221.39869751 79.83244324 221.40411377 C76.61716871 221.41504464 73.40226555 221.41249528 70.1869967 221.40297651 C66.81241615 221.39536059 63.43785976 221.4024317 60.0632782 221.40713501 C54.39150569 221.4125907 48.7198504 221.40540983 43.0480957 221.39111328 C36.51168983 221.37482638 29.97556529 221.38004697 23.43916637 221.3965925 C17.81260455 221.4102599 12.18612688 221.41210033 6.5595538 221.40427649 C3.20575217 221.39962357 -0.14781278 221.40010325 -3.50162315 221.40888596 C-7.24956339 221.41654356 -10.99697215 221.40483321 -14.74487305 221.38818359 C-15.84185516 221.39425629 -16.93883728 221.40032898 -18.06906128 221.40658569 C-25.93330872 221.34218655 -33.9856311 220.61633452 -40.4375 215.6875 C-46.90853033 208.90080965 -47.37914802 201.32388611 -47.26805115 192.34521484 C-47.06929577 187.71243386 -46.23340026 183.29273156 -45.28540039 178.76171875 C-45.10738671 177.89342438 -44.92937304 177.02513 -44.745965 176.13052368 C-42.77151173 166.6545515 -40.46733253 157.26443996 -38.12109375 147.875 C-37.66278304 146.02670783 -37.20487047 144.1783169 -36.74732971 142.32983398 C-35.55732647 137.5266963 -34.36198092 132.72490479 -33.16540527 127.92340088 C-31.95132222 123.04742099 -30.74252426 118.17013141 -29.53320312 113.29296875 C-26.03533916 99.19202081 -22.52829244 85.09336828 -19 71 C-19.7518457 71.03125977 -20.50369141 71.06251953 -21.27832031 71.09472656 C-29.7248075 71.38940753 -36.36932704 70.37886452 -43.125 65.0625 C-49.54353814 59.02907415 -53.25282715 51.24151855 -56 43 C-41.15 43 -26.3 43 -11 43 C-10.67 40.69 -10.34 38.38 -10 36 C-9.35792207 33.30052382 -8.68879765 30.62718917 -7.96875 27.94921875 C-7.67478333 26.83919243 -7.67478333 26.83919243 -7.37487793 25.70674133 C-6.96324539 24.15579508 -6.54968502 22.60535931 -6.13427734 21.05541992 C-5.49749954 18.67816514 -4.86743606 16.29920421 -4.23828125 13.91992188 C-3.83632903 12.40874997 -3.43399877 10.89767856 -3.03125 9.38671875 C-2.84268433 8.67529221 -2.65411865 7.96386566 -2.45983887 7.23088074 C-1.11591245 2.23182489 -1.11591245 2.23182489 0 0 Z " fill="#000000" transform="translate(791,162)"/>
<path d="M0 0 C0.64709869 -0.00085442 1.29419739 -0.00170885 1.96090513 -0.00258917 C4.10885856 -0.00422395 6.25673223 0.00124429 8.40467834 0.00672913 C9.9524892 0.00701146 11.50030019 0.00685237 13.04811096 0.00628662 C17.23559124 0.00600044 21.42304271 0.01186824 25.61051631 0.01886058 C29.99206187 0.02512391 34.37360813 0.02570027 38.75515747 0.02688599 C47.04580865 0.02999052 55.33644659 0.03819207 63.62709194 0.04823548 C73.06842712 0.05942388 82.50976293 0.06491393 91.95110309 0.06993091 C111.36670663 0.08037542 130.78229787 0.09795786 150.19789124 0.12025452 C149.72724775 1.55752107 149.25441068 2.99406943 148.78065491 4.43031311 C148.51758041 5.23036774 148.25450592 6.03042236 147.98345947 6.85472107 C144.83430285 15.93670698 139.7634813 23.36018814 131.33372021 28.18785191 C129.05493998 29.18266032 127.56514507 29.37277227 125.09494019 29.37854004 C124.28627502 29.38536804 123.47760986 29.39219604 122.6444397 29.39923096 C121.76593857 29.39667801 120.88743744 29.39412506 119.98231506 29.39149475 C119.05009125 29.3967215 118.11786743 29.40194824 117.15739441 29.40733337 C115.13363134 29.41757125 113.10984196 29.42335341 111.08605385 29.42521477 C107.87806561 29.42887894 104.67038639 29.44560897 101.46246338 29.4659729 C92.3416978 29.52136826 83.22088604 29.55201398 74.09999084 29.57655334 C68.51911262 29.59247312 62.93845211 29.62274289 57.357687 29.66131783 C55.23555001 29.67293341 53.11337399 29.67889787 50.99120522 29.67899895 C48.01405405 29.67919209 45.03749825 29.69753962 42.06044006 29.71961975 C41.19206009 29.71504257 40.32368011 29.71046539 39.4289856 29.70574951 C32.68958827 29.78477645 25.89472959 30.60886341 20.80848694 35.34535217 C18.90282554 38.62862449 17.57678037 41.91851221 16.42835999 45.51869202 C16.05447395 46.66765457 16.05447395 46.66765457 15.67303467 47.83982849 C11.85637957 59.95785988 8.99674352 72.35878721 6.00733948 84.70088196 C5.34424715 87.42874705 4.67230579 90.15440002 4.00042248 92.88011074 C-4.85338304 119.58228096 -4.85338304 119.58228096 -3.36460876 146.05775452 C2.1762942 150.51750568 9.52580434 151.63179881 16.46351624 152.26869202 C17.70684723 152.3872908 17.70684723 152.3872908 18.97529602 152.50828552 C33.4258736 153.71501268 47.99217708 153.586093 62.48408508 153.72114563 C66.63485667 153.76176185 70.78550343 153.81258514 74.93617249 153.86244202 C83.02332547 153.95813256 91.11054247 154.04286408 99.19789124 154.12025452 C98.41217484 158.80358376 96.58045662 162.18313308 94.01039124 166.12025452 C93.63591858 166.72353577 93.26144592 167.32681702 92.87562561 167.94837952 C89.63028016 172.98331681 86.0453061 177.17111623 80.19789124 179.12025452 C78.38999626 179.21707915 76.57872712 179.25521192 74.76824951 179.26069641 C73.64003281 179.26640656 72.5118161 179.2721167 71.34941101 179.27799988 C70.11049103 179.27911774 68.87157104 179.2802356 67.59510803 179.28138733 C66.29067245 179.28635223 64.98623688 179.29131714 63.64227295 179.2964325 C60.05898074 179.30955651 56.47570728 179.31600286 52.89239478 179.32044315 C50.64880927 179.32337729 48.40522884 179.32748302 46.16164589 179.33194733 C39.12862284 179.34562978 32.09561144 179.35528958 25.062576 179.35914922 C16.97076969 179.36361501 8.87913357 179.38109049 0.78737897 179.41014981 C-5.4812171 179.43187119 -11.7497657 179.44185924 -18.01839894 179.44319034 C-21.7546453 179.44423204 -25.49073186 179.45000153 -29.22693825 179.46800995 C-32.75233752 179.48466963 -36.27746009 179.48656099 -39.80288506 179.47787094 C-41.68954889 179.47675113 -43.57620428 179.49033446 -45.46281433 179.50462341 C-57.48993364 179.44684317 -69.4371836 178.28613849 -78.80210876 170.12025452 C-85.79660512 162.76706604 -85.38732871 154.86736944 -85.15977478 145.28187561 C-84.92354231 139.47932792 -83.96807746 134.07554874 -82.64585876 128.43275452 C-82.42389328 127.45070038 -82.2019278 126.46864624 -81.97323608 125.45683289 C-81.26344473 122.34122386 -80.53583956 119.23030736 -79.80210876 116.12025452 C-79.5645285 115.10968994 -79.32694824 114.09912537 -79.08216858 113.05793762 C-77.62762649 106.89898342 -76.13781207 100.74916467 -74.62754822 94.60365295 C-73.86347627 91.49064046 -73.10697666 88.37585124 -72.35093689 85.26087952 C-69.92441872 75.32001718 -67.3980156 65.41761256 -64.60289001 55.57337952 C-64.24494102 54.30776688 -64.24494102 54.30776688 -63.87976074 53.0165863 C-58.00884131 32.69100166 -47.69113444 17.18799323 -28.99082947 6.7325592 C-19.74271452 1.80326465 -10.4509202 -0.00836743 0 0 Z " fill="#000000" transform="translate(1483.8021087646484,205.87974548339844)"/>
<path d="M0 0 C1.22088821 0.00015106 2.44177643 0.00030212 3.69966125 0.00045776 C5.66240242 0.01594162 5.66240242 0.01594162 7.66479492 0.03173828 C9.02528169 0.03547156 10.38577117 0.03831705 11.7462616 0.04031372 C15.31537385 0.0479254 18.88432159 0.06755244 22.45336914 0.08972168 C26.09999364 0.11023343 29.7466449 0.1193268 33.39331055 0.12939453 C40.53986195 0.15080087 47.68630203 0.18490681 54.83276367 0.22705078 C54.22957781 6.91308592 53.02181415 13.1953774 51.38354492 19.69921875 C51.13450912 20.70745193 50.88547333 21.71568512 50.62889099 22.75447083 C49.80658731 26.0774702 48.97602636 29.39834451 48.14526367 32.71923828 C47.56244249 35.06621976 46.98009452 37.41331881 46.39819336 39.76052856 C45.17431664 44.69230476 43.94670385 49.62312968 42.71606445 54.55322266 C41.1659434 60.7632328 39.62189786 66.97473032 38.08027649 73.18685532 C34.35297118 88.20574649 30.60474988 103.21931811 26.83276367 118.22705078 C26.5923938 119.18360062 26.35202393 120.14015045 26.10437012 121.12568665 C24.8329782 126.18080663 23.55571266 131.234369 22.26794434 136.28534317 C21.90349184 137.71634686 21.54038266 139.14769358 21.17883301 140.57943344 C13.77213493 169.87293548 13.77213493 169.87293548 3.64526367 176.22705078 C-1.5417924 178.07133739 -6.14954732 178.37384805 -11.63989258 178.35986328 C-12.47701279 178.36082001 -13.314133 178.36177673 -14.17662048 178.36276245 C-15.95612666 178.36344303 -17.73563531 178.36159722 -19.51513672 178.35742188 C-22.16811123 178.35217271 -24.82090843 178.35731764 -27.47387695 178.36376953 C-39.06809647 178.36782672 -50.59635055 177.95224442 -62.16723633 177.22705078 C-60.87087693 169.55005214 -59.21720259 162.02639945 -57.29736328 154.48291016 C-57.01570816 153.36399887 -56.73405304 152.24508759 -56.44386292 151.0922699 C-55.51790842 147.41755522 -54.58678119 143.74417325 -53.65551758 140.07080078 C-53.0022448 137.48326846 -52.34924357 134.89566904 -51.69657898 132.3079834 C-50.32796363 126.8840724 -48.95667523 121.46084323 -47.58349609 116.03808594 C-45.84350915 109.16675312 -44.10756059 102.29440745 -42.37307453 95.42168427 C-40.69778584 88.78353681 -39.0204654 82.1459029 -37.34301758 75.50830078 C-37.03251276 74.27923508 -36.72200794 73.05016937 -36.40209389 71.78385925 C-34.62611003 64.75704036 -32.84115907 57.73258003 -31.04996109 50.70962524 C-30.13604115 47.10397783 -29.237319 43.49474455 -28.33969116 39.88500977 C-27.73714708 37.49309612 -27.13434235 35.10124812 -26.53125 32.70947266 C-26.13477878 31.09205547 -26.13477878 31.09205547 -25.73029804 29.4419632 C-20.58810677 9.21027542 -20.58810677 9.21027542 -13.01098633 3.31298828 C-8.64796804 0.74324446 -5.0523172 -0.02092057 0 0 Z " fill="#000000" transform="translate(990.167236328125,205.77294921875)"/>
<path d="M0 0 C1.92512904 0.00502475 3.85025936 0.00958594 5.77539062 0.01367188 C10.45445884 0.02460085 15.13346517 0.0418118 19.8125 0.0625 C16.1321007 11.3759924 9.60474043 24.77875475 -1.04634094 31.17958069 C-3.450931 32.1711273 -5.18372775 32.31974631 -7.77807617 32.33374023 C-8.68389938 32.34392685 -9.5897226 32.35411346 -10.522995 32.36460876 C-11.49896133 32.36674881 -12.47492767 32.36888885 -13.48046875 32.37109375 C-15.57747625 32.39629476 -17.67448139 32.42169205 -19.77148438 32.44726562 C-23.05329524 32.47574385 -26.3350641 32.49976843 -29.61694336 32.51879883 C-46.38782986 32.63490006 -62.18074375 33.54979971 -78.1875 39.0625 C-79.6725 39.5575 -79.6725 39.5575 -81.1875 40.0625 C-80.68159254 35.33182143 -78.49433938 32.11774835 -75.75 28.375 C-75.30188965 27.76140625 -74.8537793 27.1478125 -74.39208984 26.515625 C-62.70140945 10.84626953 -49.15067205 3.55680729 -29.98754883 0.73901367 C-20.0451807 -0.37944137 -9.98868526 -0.04550067 0 0 Z " fill="#000000" transform="translate(1124.1875,205.9375)"/>
</svg>
