<svg version="1.1" id="Layer_1" xmlns="http://www.w3.org/2000/svg" xmlns:xlink="http://www.w3.org/1999/xlink" x="0px" y="0px" width="134.3px" height="26px" viewBox="0 0 134.3 26" style="enable-background:new 0 0 134.3 26;" xml:space="preserve">
<style type="text/css">
	.st0{fill-rule:evenodd;clip-rule:evenodd;}
</style>
<g>
	<g>
		<g>
			<path class="st0" d="M108.3,9.1c-0.4,1.2-0.6,2.5-0.6,3.9c0,1.1,0.1,2.3,0.4,3.3l-6.2,9.5h-4.6L108.3,9.1L108.3,9.1z"></path>
			<path class="st0" d="M111,4.1H98.9V0.3h17.6C114.4,1.1,112.5,2.4,111,4.1"></path>
		</g>
		<polygon class="st0" points="90.3,0.3 96.7,0.3 96.7,25.8 92.6,25.8 92.6,4.1 88.1,4.1"></polygon>
		<polygon class="st0" points="114.7,14.4 115.2,14.4 115.2,13.2 116.3,11.3 115.7,11.3 115,12.7 114.2,11.3 113.6,11.3 114.7,13.2"></polygon>
		<polygon class="st0" points="117.1,14.4 119.1,14.4 119.1,14 117.7,14 117.7,13.1 118.9,13.1 118.9,12.6 117.7,12.6 117.7,11.8 
			119.1,11.8 119.1,11.3 117.1,11.3"></polygon>
		<path class="st0" d="M119.9,14.4h0.5l0.3-0.7h1.2l0.3,0.7h0.5l-1.2-3.2h-0.5C121.1,11.3,119.9,14.4,119.9,14.4z M120.9,13.3
			l0.4-1.3l0.4,1.3H120.9z"></path>
		<path class="st0" d="M123.6,14.4h0.5v-1.1h0.5l0.7,1.1h0.6l-0.7-1.2c0.4-0.1,0.7-0.4,0.7-0.9l0,0c0-0.3-0.1-0.5-0.3-0.7
			c-0.2-0.2-0.5-0.3-0.8-0.3h-1.1L123.6,14.4L123.6,14.4z M124.1,12.9v-1.1h0.6c0.4,0,0.6,0.2,0.6,0.5l0,0c0,0.3-0.2,0.6-0.6,0.6
			H124.1L124.1,12.9z"></path>
		<path class="st0" d="M127.8,14.5c0.6,0,1-0.4,1-1l0,0c0-0.5-0.3-0.7-0.8-0.9c-0.5-0.2-0.7-0.3-0.7-0.5l0,0c0-0.2,0.2-0.4,0.5-0.4
			c0.3,0,0.5,0.1,0.7,0.3l0.3-0.4c-0.3-0.3-0.6-0.4-1-0.4c-0.6,0-1,0.4-1,0.9l0,0c0,0.5,0.3,0.7,0.9,1c0.5,0.2,0.6,0.3,0.6,0.5l0,0
			c0,0.2-0.2,0.4-0.5,0.4c-0.3,0-0.6-0.2-0.8-0.4l-0.3,0.4C127,14.4,127.4,14.5,127.8,14.5"></path>
		<path class="st0" d="M112.1,13c0-5.1,4.1-9.2,9.2-9.2s9.2,4.1,9.2,9.2s-4.1,9.2-9.2,9.2S112.1,18.1,112.1,13 M108.3,13
			c0-7.2,5.8-13,13-13c7.2,0,13,5.8,13,13s-5.8,13-13,13C114.1,26,108.3,20.2,108.3,13"></path>
	</g>
	<g>
		<polygon points="40.7,6 43.2,20 41,20 39.4,11.1 35.9,20 34,20 30.4,11.1 28.8,20 26.6,20 29.1,6 31.1,6 34.9,15.9 38.7,6"></polygon>
		<rect x="18.6" y="6" width="2.6" height="14.1"></rect>
		<polygon points="0,7.9 5.8,7.9 5.8,20 8.3,20 8.3,7.9 14.1,7.9 14.1,6 0,6"></polygon>
		<polygon points="73,12.7 77.8,6 74.6,6 71.4,10.8 68.2,6 65,6 69.8,12.7 64.4,20 67.6,20 71.4,14.3 75.3,20 78.5,20"></polygon>
		<polygon points="48.7,20 60.5,20 60.5,17.8 51.2,17.8 51.2,14 59.6,14 59.6,11.7 51.2,11.7 51.2,8.2 60.5,8.2 60.5,6 48.7,6"></polygon>
	</g>
</g>
</svg>
